<svg data-v-6cfe84e8="" id="circuit-k5y56abf" height="210" width="1250" viewBox="0 0 1250 210" xmlns="http://www.w3.org/2000/svg" xmlns:svg="http://www.w3.org/2000/svg" class=""><defs data-v-6cfe84e8=""><svg:style xmlns:svg="http://www.w3.org/2000/svg" data-v-6cfe84e8="" type="text/css"> @font-face { font-family: 'IBM Plex Mono'; src: url('https://fonts.googleapis.com/css?family=IBM+Plex+Mono'); } </svg:style><filter data-v-6cfe84e8="" id="dropshadow" height="140%" width="140%"><feGaussianBlur data-v-6cfe84e8="" in="SourceAlpha" stdDeviation="1"/><feOffset data-v-6cfe84e8="" dx="1" dy="2" result="offsetblur"/><feMerge data-v-6cfe84e8=""><feMergeNode data-v-6cfe84e8=""/><feMergeNode data-v-6cfe84e8="" in="SourceGraphic"/></feMerge></filter></defs><g data-v-6cfe84e8=""><g data-v-6cfe84e8="" transform="translate(100, 40)"><g data-v-6cfe84e8="" transform="translate(-34,-13) scale(0.85)"><g data-v-6cfe84e8="" transform="translate(7, 7.5) scale(0.8)"><path data-v-6cfe84e8="" fill-rule="evenodd" clip-rule="evenodd" d="M9.5 17.4304H11.5C13.1569 17.4304 14.5 16.0873 14.5 14.4304V6.43042C14.5 4.77357 13.1569 3.43042 11.5 3.43042H9.5C7.84315 3.43042 6.5 4.77357 6.5 6.43042V14.4304C6.5 16.0873 7.84315 17.4304 9.5 17.4304ZM8.5 6.43042C8.5 5.87814 8.94772 5.43042 9.5 5.43042H11.5C12.0523 5.43042 12.5 5.87814 12.5 6.43042V14.4304C12.5 14.9827 12.0523 15.4304 11.5 15.4304H9.5C8.94772 15.4304 8.5 14.9827 8.5 14.4304V6.43042Z" fill="#202529"/><path data-v-6cfe84e8="" d="M19.3454 20.4304L17.5 19.5304L22.1907 10.4304L17.5 1.33042L19.3454 0.43042L24.5 10.4304L19.3454 20.4304V20.4304Z" fill="#202529"/><rect data-v-6cfe84e8="" x="0.5" y="0.43042" width="2" height="20" fill="#202529"/></g></g><line data-v-6cfe84e8="" x1="0" x2="1240" y1="0" y2="0" fill="none" stroke="#979797" style="stroke-width: 1.5px; stroke-linecap: round;"/></g><g data-v-6cfe84e8="" transform="translate(100, 80)"><g data-v-6cfe84e8="" transform="translate(-34,-13) scale(0.85)"><g data-v-6cfe84e8="" transform="translate(7, 7.5) scale(0.8)"><path data-v-6cfe84e8="" fill-rule="evenodd" clip-rule="evenodd" d="M9.5 17.4304H11.5C13.1569 17.4304 14.5 16.0873 14.5 14.4304V6.43042C14.5 4.77357 13.1569 3.43042 11.5 3.43042H9.5C7.84315 3.43042 6.5 4.77357 6.5 6.43042V14.4304C6.5 16.0873 7.84315 17.4304 9.5 17.4304ZM8.5 6.43042C8.5 5.87814 8.94772 5.43042 9.5 5.43042H11.5C12.0523 5.43042 12.5 5.87814 12.5 6.43042V14.4304C12.5 14.9827 12.0523 15.4304 11.5 15.4304H9.5C8.94772 15.4304 8.5 14.9827 8.5 14.4304V6.43042Z" fill="#202529"/><path data-v-6cfe84e8="" d="M19.3454 20.4304L17.5 19.5304L22.1907 10.4304L17.5 1.33042L19.3454 0.43042L24.5 10.4304L19.3454 20.4304V20.4304Z" fill="#202529"/><rect data-v-6cfe84e8="" x="0.5" y="0.43042" width="2" height="20" fill="#202529"/></g></g><line data-v-6cfe84e8="" x1="0" x2="1240" y1="0" y2="0" fill="none" stroke="#979797" style="stroke-width: 1.5px; stroke-linecap: round;"/></g><g data-v-6cfe84e8="" transform="translate(100, 120)"><g data-v-6cfe84e8="" transform="translate(-34,-13) scale(0.85)"><g data-v-6cfe84e8="" transform="translate(7, 7.5) scale(0.8)"><path data-v-6cfe84e8="" fill-rule="evenodd" clip-rule="evenodd" d="M9.5 17.4304H11.5C13.1569 17.4304 14.5 16.0873 14.5 14.4304V6.43042C14.5 4.77357 13.1569 3.43042 11.5 3.43042H9.5C7.84315 3.43042 6.5 4.77357 6.5 6.43042V14.4304C6.5 16.0873 7.84315 17.4304 9.5 17.4304ZM8.5 6.43042C8.5 5.87814 8.94772 5.43042 9.5 5.43042H11.5C12.0523 5.43042 12.5 5.87814 12.5 6.43042V14.4304C12.5 14.9827 12.0523 15.4304 11.5 15.4304H9.5C8.94772 15.4304 8.5 14.9827 8.5 14.4304V6.43042Z" fill="#202529"/><path data-v-6cfe84e8="" d="M19.3454 20.4304L17.5 19.5304L22.1907 10.4304L17.5 1.33042L19.3454 0.43042L24.5 10.4304L19.3454 20.4304V20.4304Z" fill="#202529"/><rect data-v-6cfe84e8="" x="0.5" y="0.43042" width="2" height="20" fill="#202529"/></g></g><line data-v-6cfe84e8="" x1="0" x2="1240" y1="0" y2="0" fill="none" stroke="#979797" style="stroke-width: 1.5px; stroke-linecap: round;"/></g></g><g data-v-6cfe84e8="" transform="translate(100, 170)"><line data-v-6cfe84e8="" x1="0" x2="1240" y1="0" y2="0" fill="none" stroke="#979797" style="stroke-width: 1px; stroke-linecap: round;"/></g><g data-v-2fca76db="" data-v-6cfe84e8="" style="font-family: &quot;IBM Plex Mono&quot;;"><g data-v-2fca76db="" class="svgGate"><!----><!----><g transform="translate(111,104)"><rect width="32" height="32" style="fill: rgb(48, 176, 255);"/><!----><text dominant-baseline="alphabetical" x="16" y="22" style="font-size: 19.5px; font-style: normal; fill: rgb(0, 39, 73); font-weight: normal;"><tspan text-anchor="middle">H</tspan></text><text x="16" y="28" style="font-style: normal; fill: rgb(0, 39, 73); font-size: 8.5px; font-weight: bold;"><!----></text><!----></g><!----></g><g data-v-2fca76db="" class="svgGate"><!----><!----><g transform="translate(161,104)"><rect width="32" height="32" style="fill: rgb(238, 83, 139);"/><!----><text dominant-baseline="alphabetical" x="16" y="16" style="font-size: 18px; font-style: normal; fill: rgb(242, 244, 248); font-weight: normal;"><tspan text-anchor="middle">U1</tspan></text><text x="16" y="28" style="font-style: normal; fill: rgb(242, 244, 248); font-size: 7px; font-weight: bold;"><tspan text-anchor="middle"> (-0.03...) </tspan></text><!----></g><!----></g><g data-v-2fca76db="" class="svgGate"><g style="fill: rgb(242, 244, 248);"><!----><!----><g transform="translate(211,40)"><line x1="16" y1="-16" x2="16" y2="96" style="stroke-width: 4px; stroke-dasharray: 15px, 5px; fill: none; stroke: rgb(19, 23, 26);"/><!----><!----><!----></g><!----></g></g><g data-v-2fca76db="" class="svgGate"><!----><g><g><line x1="277" y1="120" x2="277" y2="40" style="stroke-width: 4px; stroke: rgb(146, 76, 252);"/><circle r="6" cx="277" cy="120" style="fill: rgb(146, 76, 252);"/></g></g><g transform="translate(261,24)"><rect width="32" height="32" style="fill: rgb(146, 76, 252);"/><!----><text dominant-baseline="alphabetical" x="16" y="16" style="font-size: 16.5px; font-style: normal; fill: rgb(242, 244, 248); font-weight: normal;"><tspan text-anchor="middle">cRz</tspan></text><text x="16" y="28" style="font-style: normal; fill: rgb(242, 244, 248); font-size: 5.5px; font-weight: bold;"><tspan text-anchor="middle"> (0.0777496) </tspan></text><!----></g><!----></g><g data-v-2fca76db="" class="svgGate"><g style="fill: rgb(242, 244, 248);"><!----><!----><g transform="translate(311,40)"><line x1="16" y1="-16" x2="16" y2="96" style="stroke-width: 4px; stroke-dasharray: 15px, 5px; fill: none; stroke: rgb(19, 23, 26);"/><!----><!----><!----></g><!----></g></g><g data-v-2fca76db="" class="svgGate"><!----><g><g><line x1="377" y1="120" x2="377" y2="80" style="stroke-width: 4px; stroke: rgb(146, 76, 252);"/><circle r="6" cx="377" cy="120" style="fill: rgb(146, 76, 252);"/></g></g><g transform="translate(361,64)"><rect width="32" height="32" style="fill: rgb(146, 76, 252);"/><!----><text dominant-baseline="alphabetical" x="16" y="16" style="font-size: 16.5px; font-style: normal; fill: rgb(242, 244, 248); font-weight: normal;"><tspan text-anchor="middle">cRz</tspan></text><text x="16" y="28" style="font-style: normal; fill: rgb(242, 244, 248); font-size: 5.5px; font-weight: bold;"><tspan text-anchor="middle"> (0.0777496) </tspan></text><!----></g><!----></g><g data-v-2fca76db="" class="svgGate"><g style="fill: rgb(242, 244, 248);"><!----><!----><g transform="translate(411,40)"><line x1="16" y1="-16" x2="16" y2="96" style="stroke-width: 4px; stroke-dasharray: 15px, 5px; fill: none; stroke: rgb(19, 23, 26);"/><!----><!----><!----></g><!----></g></g><g data-v-2fca76db="" class="svgGate"><!----><g><g><line x1="477" y1="40" x2="477" y2="80" style="stroke-width: 4px; stroke: rgb(48, 176, 255);"/><circle r="6" cx="477" cy="40" style="fill: rgb(48, 176, 255);"/></g></g><g transform="translate(461,64)"><!----><circle cx="16" cy="16" r="16" fill="#30B0FF"/><!----><!----><path slot="label" transform="translate(16, 16) scale(0.8)" d="M1.1-1.2v-9.4h-2.2v9.4h-8.8v2.4h8.8v9.4h2.2V1.2h8.8v-2.4H1.1z" fill="#002749"/></g><!----></g><g data-v-2fca76db="" class="svgGate"><!----><g><g><line x1="527" y1="120" x2="527" y2="80" style="stroke-width: 4px; stroke: rgb(146, 76, 252);"/><circle r="6" cx="527" cy="120" style="fill: rgb(146, 76, 252);"/></g></g><g transform="translate(511,64)"><rect width="32" height="32" style="fill: rgb(146, 76, 252);"/><!----><text dominant-baseline="alphabetical" x="16" y="16" style="font-size: 16.5px; font-style: normal; fill: rgb(242, 244, 248); font-weight: normal;"><tspan text-anchor="middle">cRz</tspan></text><text x="16" y="28" style="font-style: normal; fill: rgb(242, 244, 248); font-size: 5.5px; font-weight: bold;"><tspan text-anchor="middle"> (-0.00...) </tspan></text><!----></g><!----></g><g data-v-2fca76db="" class="svgGate"><!----><g><g><line x1="577" y1="40" x2="577" y2="80" style="stroke-width: 4px; stroke: rgb(48, 176, 255);"/><circle r="6" cx="577" cy="40" style="fill: rgb(48, 176, 255);"/></g></g><g transform="translate(561,64)"><!----><circle cx="16" cy="16" r="16" fill="#30B0FF"/><!----><!----><path slot="label" transform="translate(16, 16) scale(0.8)" d="M1.1-1.2v-9.4h-2.2v9.4h-8.8v2.4h8.8v9.4h2.2V1.2h8.8v-2.4H1.1z" fill="#002749"/></g><!----></g><g data-v-2fca76db="" class="svgGate"><g style="fill: rgb(242, 244, 248);"><!----><!----><g transform="translate(611,40)"><line x1="16" y1="-16" x2="16" y2="96" style="stroke-width: 4px; stroke-dasharray: 15px, 5px; fill: none; stroke: rgb(19, 23, 26);"/><!----><!----><!----></g><!----></g></g><g data-v-2fca76db="" class="svgGate"><!----><!----><g transform="translate(661,24)"><rect width="32" height="32" style="fill: rgb(48, 176, 255);"/><!----><text dominant-baseline="alphabetical" x="16" y="22" style="font-size: 19.5px; font-style: normal; fill: rgb(0, 39, 73); font-weight: normal;"><tspan text-anchor="middle">H</tspan></text><text x="16" y="28" style="font-style: normal; fill: rgb(0, 39, 73); font-size: 8.5px; font-weight: bold;"><!----></text><!----></g><!----></g><g data-v-2fca76db="" class="svgGate"><!----><!----><g transform="translate(661,64)"><rect width="32" height="32" style="fill: rgb(48, 176, 255);"/><!----><text dominant-baseline="alphabetical" x="16" y="22" style="font-size: 19.5px; font-style: normal; fill: rgb(0, 39, 73); font-weight: normal;"><tspan text-anchor="middle">H</tspan></text><text x="16" y="28" style="font-style: normal; fill: rgb(0, 39, 73); font-size: 8.5px; font-weight: bold;"><!----></text><!----></g><!----></g><g data-v-2fca76db="" class="svgGate"><!----><g><g><line x1="727" y1="40" x2="727" y2="80" style="stroke-width: 4px; stroke: rgb(48, 176, 255);"/><circle r="6" cx="727" cy="40" style="fill: rgb(48, 176, 255);"/></g></g><g transform="translate(711,64)"><!----><circle cx="16" cy="16" r="16" fill="#30B0FF"/><!----><!----><path slot="label" transform="translate(16, 16) scale(0.8)" d="M1.1-1.2v-9.4h-2.2v9.4h-8.8v2.4h8.8v9.4h2.2V1.2h8.8v-2.4H1.1z" fill="#002749"/></g><!----></g><g data-v-2fca76db="" class="svgGate"><!----><g><g><line x1="777" y1="120" x2="777" y2="80" style="stroke-width: 4px; stroke: rgb(146, 76, 252);"/><circle r="6" cx="777" cy="120" style="fill: rgb(146, 76, 252);"/></g></g><g transform="translate(761,64)"><rect width="32" height="32" style="fill: rgb(146, 76, 252);"/><!----><text dominant-baseline="alphabetical" x="16" y="16" style="font-size: 16.5px; font-style: normal; fill: rgb(242, 244, 248); font-weight: normal;"><tspan text-anchor="middle">cRz</tspan></text><text x="16" y="28" style="font-style: normal; fill: rgb(242, 244, 248); font-size: 5.5px; font-weight: bold;"><tspan text-anchor="middle"> (-0.03...) </tspan></text><!----></g><!----></g><g data-v-2fca76db="" class="svgGate"><!----><g><g><line x1="827" y1="40" x2="827" y2="80" style="stroke-width: 4px; stroke: rgb(48, 176, 255);"/><circle r="6" cx="827" cy="40" style="fill: rgb(48, 176, 255);"/></g></g><g transform="translate(811,64)"><!----><circle cx="16" cy="16" r="16" fill="#30B0FF"/><!----><!----><path slot="label" transform="translate(16, 16) scale(0.8)" d="M1.1-1.2v-9.4h-2.2v9.4h-8.8v2.4h8.8v9.4h2.2V1.2h8.8v-2.4H1.1z" fill="#002749"/></g><!----></g><g data-v-2fca76db="" class="svgGate"><!----><!----><g transform="translate(861,24)"><rect width="32" height="32" style="fill: rgb(48, 176, 255);"/><!----><text dominant-baseline="alphabetical" x="16" y="22" style="font-size: 19.5px; font-style: normal; fill: rgb(0, 39, 73); font-weight: normal;"><tspan text-anchor="middle">H</tspan></text><text x="16" y="28" style="font-style: normal; fill: rgb(0, 39, 73); font-size: 8.5px; font-weight: bold;"><!----></text><!----></g><!----></g><g data-v-2fca76db="" class="svgGate"><!----><!----><g transform="translate(861,64)"><rect width="32" height="32" style="fill: rgb(48, 176, 255);"/><!----><text dominant-baseline="alphabetical" x="16" y="22" style="font-size: 19.5px; font-style: normal; fill: rgb(0, 39, 73); font-weight: normal;"><tspan text-anchor="middle">H</tspan></text><text x="16" y="28" style="font-style: normal; fill: rgb(0, 39, 73); font-size: 8.5px; font-weight: bold;"><!----></text><!----></g><!----></g><g data-v-2fca76db="" class="svgGate"><g style="fill: rgb(242, 244, 248);"><!----><!----><g transform="translate(911,40)"><line x1="16" y1="-16" x2="16" y2="96" style="stroke-width: 4px; stroke-dasharray: 15px, 5px; fill: none; stroke: rgb(19, 23, 26);"/><!----><!----><!----></g><!----></g></g><g data-v-2fca76db="" class="svgGate"><!----><g><g><line x1="977" y1="120" x2="977" y2="40" style="stroke-width: 4px; stroke: rgb(48, 176, 255);"/><circle r="6" cx="977" cy="120" style="fill: rgb(48, 176, 255);"/></g></g><g transform="translate(961,24)"><!----><circle cx="16" cy="16" r="16" fill="#30B0FF"/><!----><!----><path slot="label" transform="translate(16, 16) scale(0.8)" d="M1.1-1.2v-9.4h-2.2v9.4h-8.8v2.4h8.8v9.4h2.2V1.2h8.8v-2.4H1.1z" fill="#002749"/></g><!----></g><g data-v-2fca76db="" class="svgGate"><!----><g><g><line x1="1027" y1="120" x2="1027" y2="80" style="stroke-width: 4px; stroke: rgb(146, 76, 252);"/><circle r="6" cx="1027" cy="120" style="fill: rgb(146, 76, 252);"/></g></g><g transform="translate(1011,64)"><rect width="32" height="32" style="fill: rgb(146, 76, 252);"/><!----><text dominant-baseline="alphabetical" x="16" y="22" style="font-size: 18px; font-style: normal; fill: rgb(242, 244, 248); font-weight: normal;"><tspan text-anchor="middle">cH</tspan></text><text x="16" y="28" style="font-style: normal; fill: rgb(242, 244, 248); font-size: 7px; font-weight: bold;"><!----></text><!----></g><!----></g><g data-v-2fca76db="" class="svgGate"><!----><g><g><line x1="1077" y1="120" x2="1077" y2="40" style="stroke-width: 4px; stroke: rgb(146, 76, 252);"/><circle r="6" cx="1077" cy="120" style="fill: rgb(146, 76, 252);"/></g><g><line x1="1077" y1="80" x2="1077" y2="120" style="stroke-width: 4px; stroke: rgb(146, 76, 252);"/><circle r="6" cx="1077" cy="80" style="fill: rgb(146, 76, 252);"/></g></g><g transform="translate(1061,24)"><!----><circle cx="16" cy="16" r="16" fill="#924CFC"/><!----><!----><path slot="label" transform="translate(16, 16) scale(0.8)" d="M1.1-1.2v-9.4h-2.2v9.4h-8.8v2.4h8.8v9.4h2.2V1.2h8.8v-2.4H1.1z" fill="#F2F4F8"/></g><!----></g><g data-v-2fca76db="" class="svgGate"><!----><!----><g transform="translate(1111,104)"><rect width="32" height="32" style="fill: rgb(238, 83, 139);"/><!----><text dominant-baseline="alphabetical" x="16" y="16" style="font-size: 18px; font-style: normal; fill: rgb(242, 244, 248); font-weight: normal;"><tspan text-anchor="middle">U2</tspan></text><text x="16" y="28" style="font-style: normal; fill: rgb(242, 244, 248); font-size: 7px; font-weight: bold;"><tspan text-anchor="middle"> (pi/2,...) </tspan></text><!----></g><!----></g><g data-v-2fca76db="" class="svgGate"><g><line x1="1177" y1="120" x2="1177" y2="170" stroke="#979797" style="stroke-width: 1.5px;"/><path d="M0,0 L8,0 L4,8 z" fill="#979797" transform="translate(1173 162)"/><text x="1177" y="184" dominant-baseline="alphabetical" style="fill: rgb(0, 0, 0);"><tspan text-anchor="middle">2</tspan></text></g><g><!----><!----><g transform="translate(1161,104)"><rect width="32" height="32" style="fill: rgb(32, 37, 41);"/><!----><!----><!----><g transform="scale(0.9) translate(4,5)"><path d="M28.5 0.43042H22.5V2.43042H25.88L22.5 6.43042V8.43042H28.5V6.43042H25.12L28.5 2.43042V0.43042V0.43042Z" fill="#F2F4F8"/><path d="M18.5 14.0504L20.58 10.4304L18.85 9.43042L16.67 13.2004C12.9909 11.8369 8.87757 12.3582 5.65489 14.5964C2.4322 16.8345 0.507243 20.5068 0.5 24.4304H2.5C2.50244 21.2177 4.04826 18.2019 6.655 16.324C9.26174 14.4462 12.6119 13.9352 15.66 14.9504L12.5 20.4304C11.5946 20.4295 10.8015 21.0369 10.5665 21.9113C10.3315 22.7856 10.7132 23.7088 11.4971 24.1619C12.2809 24.615 13.2714 24.485 13.9118 23.845C14.5522 23.2049 14.6827 22.2145 14.23 21.4304L17.5 15.7804C20.5908 17.5649 22.4963 20.8614 22.5 24.4304H24.5C24.4956 20.1476 22.209 16.1918 18.5 14.0504Z" fill="#F2F4F8"/></g></g><!----></g></g></g><g data-v-6cfe84e8="" transform="translate(-5 0)" class="fixedLabels"><rect data-v-6cfe84e8="" x="0" y="0" width="70" height="210" style="fill: white;"/><g data-v-6cfe84e8=""><g data-v-6cfe84e8="" transform="translate(
              65,
              45
            )" class="registerLabel"><!----><text data-v-6cfe84e8="" text-anchor="end" font-family="'IBM Plex Mono'" font-size="14px" font-weight="bold" fill="#565656" class="small"> q[0] </text><!----></g><g data-v-6cfe84e8="" transform="translate(
              65,
              85
            )" class="registerLabel"><!----><text data-v-6cfe84e8="" text-anchor="end" font-family="'IBM Plex Mono'" font-size="14px" font-weight="bold" fill="#565656" class="small"> q[1] </text><!----></g><g data-v-6cfe84e8="" transform="translate(
              65,
              125
            )" class="registerLabel"><!----><text data-v-6cfe84e8="" text-anchor="end" font-family="'IBM Plex Mono'" font-size="14px" font-weight="bold" fill="#565656" class="small"> q[2] </text><!----></g><!----></g></g><g data-v-6cfe84e8=""><g data-v-6cfe84e8=""><text data-v-6cfe84e8="" x="65" y="175" text-anchor="end" font-family="'IBM Plex Mono'" font-size="14px" font-weight="bold" fill="#565656" class="small"> c3 </text></g></g></svg>